<?xml version="1.0" encoding="utf-8" standalone="no"?>
<!DOCTYPE svg PUBLIC "-//W3C//DTD SVG 1.1//EN"
  "http://www.w3.org/Graphics/SVG/1.1/DTD/svg11.dtd">
<!-- Created with matplotlib (https://matplotlib.org/) -->
<svg height="345.6pt" version="1.1" viewBox="0 0 460.8 345.6" width="460.8pt" xmlns="http://www.w3.org/2000/svg" xmlns:xlink="http://www.w3.org/1999/xlink">
 <defs>
  <style type="text/css">
*{stroke-linecap:butt;stroke-linejoin:round;}
  </style>
 </defs>
 <g id="figure_1">
  <g id="patch_1">
   <path d="M 0 345.6 
L 460.8 345.6 
L 460.8 0 
L 0 0 
z
" style="fill:#ffffff;"/>
  </g>
  <g id="axes_1">
   <g id="patch_2">
    <path d="M 47.81 303.64 
L 447.48 303.64 
L 447.48 13.32 
L 47.81 13.32 
z
" style="fill:#ffffff;"/>
   </g>
   <g id="PathCollection_1">
    <path clip-path="url(#p8300a26437)" d="M 49.197743 303.64 
L 50.585486 303.64 
L 51.973229 303.64 
L 53.360972 303.64 
L 54.748715 303.64 
L 56.136458 303.64 
L 57.524201 303.64 
L 58.911944 303.64 
L 60.299688 303.64 
L 61.687431 303.64 
L 63.075174 303.64 
L 64.462917 303.64 
L 65.85066 303.64 
L 67.238403 303.64 
L 68.626146 303.64 
L 70.013889 303.64 
L 71.401632 303.64 
L 72.789375 303.64 
L 74.177118 303.64 
L 75.564861 303.64 
L 76.952604 303.64 
L 78.340347 303.64 
L 79.72809 303.64 
L 81.115833 303.64 
L 82.503576 303.64 
L 83.891319 303.64 
L 85.279063 303.64 
L 86.666806 303.64 
L 88.054549 303.64 
L 89.442292 303.64 
L 90.830035 303.64 
L 92.217778 303.64 
L 93.605521 303.64 
L 94.993264 303.64 
L 96.381007 303.64 
L 97.76875 303.64 
L 99.156493 303.64 
L 100.544236 303.64 
L 101.931979 303.64 
L 103.319722 303.64 
L 104.707465 303.64 
L 106.095208 303.64 
L 107.482951 303.64 
L 108.870694 303.64 
L 110.258437 303.64 
L 111.646181 303.64 
L 113.033924 303.64 
L 114.421667 303.64 
L 115.80941 303.64 
L 117.197153 303.64 
L 118.584896 303.64 
L 119.972639 303.64 
L 121.360382 303.64 
L 122.748125 303.64 
L 124.135868 303.64 
L 125.523611 303.64 
L 126.911354 303.64 
L 128.299097 303.64 
L 129.68684 303.64 
L 131.074583 303.64 
L 132.462326 303.64 
L 133.850069 303.64 
L 135.237812 303.64 
L 136.625556 303.64 
L 138.013299 303.64 
L 139.401042 303.64 
L 140.788785 303.64 
L 142.176528 303.64 
L 143.564271 303.64 
L 144.952014 303.64 
L 146.339757 303.64 
L 147.7275 303.64 
L 149.115243 303.64 
L 150.502986 303.64 
L 151.890729 303.64 
L 153.278472 303.64 
L 154.666215 303.64 
L 156.053958 303.64 
L 157.441701 303.64 
L 158.829444 303.64 
L 160.217187 303.64 
L 161.604931 303.64 
L 162.992674 303.64 
L 164.380417 303.64 
L 165.76816 303.64 
L 167.155903 303.64 
L 168.543646 303.64 
L 169.931389 303.64 
L 171.319132 303.64 
L 172.706875 303.64 
L 174.094618 303.64 
L 175.482361 303.64 
L 176.870104 303.64 
L 178.257847 303.64 
L 179.64559 303.64 
L 181.033333 303.64 
L 182.421076 303.64 
L 183.808819 303.64 
L 185.196562 303.64 
L 186.584306 303.64 
L 187.972049 303.64 
L 189.359792 303.64 
L 190.747535 303.64 
L 192.135278 303.64 
L 193.523021 303.64 
L 194.910764 303.64 
L 196.298507 303.64 
L 197.68625 303.64 
L 199.073993 303.64 
L 200.461736 303.64 
L 201.849479 303.64 
L 203.237222 303.64 
L 204.624965 303.64 
L 206.012708 303.64 
L 207.400451 303.64 
L 208.788194 303.64 
L 210.175937 303.64 
L 211.563681 303.64 
L 212.951424 303.64 
L 214.339167 303.64 
L 215.72691 303.64 
L 217.114653 303.64 
L 218.502396 303.64 
L 219.890139 303.64 
L 221.277882 303.64 
L 222.665625 303.64 
L 224.053368 303.64 
L 225.441111 303.64 
L 226.828854 303.64 
L 228.216597 303.64 
L 229.60434 303.64 
L 230.992083 303.64 
L 232.379826 303.64 
L 233.767569 303.64 
L 235.155312 303.64 
L 236.543056 303.64 
L 237.930799 303.64 
L 239.318542 303.64 
L 240.706285 303.64 
L 242.094028 303.64 
L 243.481771 303.64 
L 244.869514 303.64 
L 246.257257 303.64 
L 247.645 303.64 
L 249.032743 303.64 
L 250.420486 303.64 
L 251.808229 303.64 
L 253.195972 303.64 
L 254.583715 303.64 
L 255.971458 303.64 
L 257.359201 303.64 
L 258.746944 303.64 
L 260.134687 303.64 
L 261.522431 303.64 
L 262.910174 303.64 
L 264.297917 303.64 
L 265.68566 303.64 
L 267.073403 303.64 
L 268.461146 303.64 
L 269.848889 303.64 
L 271.236632 303.64 
L 272.624375 303.64 
L 274.012118 303.64 
L 275.399861 303.64 
L 276.787604 303.64 
L 278.175347 303.64 
L 279.56309 303.64 
L 280.950833 303.64 
L 282.338576 303.64 
L 283.726319 303.64 
L 285.114062 303.64 
L 286.501806 303.64 
L 287.889549 303.64 
L 289.277292 303.64 
L 290.665035 303.64 
L 292.052778 303.64 
L 293.440521 303.64 
L 294.828264 303.64 
L 296.216007 303.64 
L 297.60375 303.64 
L 298.991493 303.64 
L 300.379236 303.64 
L 301.766979 303.64 
L 303.154722 303.64 
L 304.542465 303.64 
L 305.930208 303.64 
L 307.317951 303.64 
L 308.705694 303.64 
L 310.093437 303.64 
L 311.481181 303.64 
L 312.868924 303.64 
L 314.256667 303.64 
L 315.64441 303.64 
L 317.032153 303.64 
L 318.419896 303.64 
L 319.807639 303.64 
L 321.195382 303.64 
L 322.583125 303.64 
L 323.970868 303.64 
L 325.358611 303.64 
L 326.746354 303.64 
L 328.134097 303.64 
L 329.52184 303.64 
L 330.909583 303.64 
L 332.297326 303.64 
L 333.685069 303.64 
L 335.072812 303.64 
L 336.460556 303.64 
L 337.848299 303.64 
L 339.236042 303.64 
L 340.623785 303.64 
L 342.011528 303.64 
L 343.399271 303.64 
L 344.787014 303.64 
L 346.174757 303.64 
L 347.5625 303.64 
L 348.950243 303.64 
L 350.337986 303.64 
L 351.725729 303.64 
L 353.113472 303.64 
L 354.501215 303.64 
L 355.888958 303.64 
L 357.276701 303.64 
L 358.664444 303.64 
L 360.052187 303.64 
L 361.439931 303.64 
L 362.827674 303.64 
L 364.215417 303.64 
L 365.60316 303.64 
L 366.990903 303.64 
L 368.378646 303.64 
L 369.766389 303.64 
L 371.154132 303.64 
L 372.541875 303.64 
L 373.929618 303.64 
L 375.317361 303.64 
L 376.705104 303.64 
L 378.092847 303.64 
L 379.48059 303.64 
L 380.868333 303.64 
L 382.256076 303.64 
L 383.643819 303.64 
L 385.031563 303.64 
L 386.419306 303.64 
L 387.807049 303.64 
L 389.194792 303.64 
L 390.582535 303.64 
L 391.970278 303.64 
L 393.358021 303.64 
L 394.745764 303.64 
L 396.133507 303.64 
L 397.52125 303.64 
L 398.908993 303.64 
L 400.296736 303.64 
L 401.684479 303.64 
L 403.072222 303.64 
L 404.459965 303.64 
L 405.847708 303.64 
L 407.235451 303.64 
L 408.623194 303.64 
L 410.010937 303.64 
L 411.398681 303.64 
L 412.786424 303.64 
L 414.174167 303.64 
L 415.56191 303.64 
L 416.949653 303.64 
L 418.337396 303.64 
L 419.725139 303.64 
L 421.112882 303.64 
L 422.500625 303.64 
L 423.888368 303.64 
L 425.276111 303.64 
L 426.663854 303.64 
L 428.051597 303.64 
L 429.43934 303.64 
L 430.827083 303.64 
L 432.214826 303.64 
L 433.602569 303.64 
L 434.990312 303.64 
L 436.378056 303.64 
L 437.765799 303.64 
L 439.153542 303.64 
L 440.541285 303.64 
L 441.929028 303.64 
L 443.316771 303.64 
L 444.704514 303.64 
L 446.092257 303.64 
L 447.48 303.64 
L 447.48 302.276995 
L 447.48 300.913991 
L 447.48 299.550986 
L 447.48 298.187981 
L 447.48 296.824977 
L 447.48 295.461972 
L 447.48 294.098967 
L 447.48 292.735962 
L 447.48 291.372958 
L 447.48 290.009953 
L 447.48 288.646948 
L 447.48 287.283944 
L 447.48 285.920939 
L 447.48 284.557934 
L 447.48 283.19493 
L 447.48 281.831925 
L 447.48 280.46892 
L 447.48 279.105915 
L 447.48 277.742911 
L 447.48 276.379906 
L 447.48 275.016901 
L 447.48 273.653897 
L 447.48 272.290892 
L 447.48 270.927887 
L 447.48 269.564883 
L 447.48 268.201878 
L 447.48 266.838873 
L 447.48 265.475869 
L 447.48 264.112864 
L 447.48 262.749859 
L 447.48 261.386854 
L 447.48 260.02385 
L 447.48 258.660845 
L 447.48 257.29784 
L 447.48 255.934836 
L 447.48 254.571831 
L 447.48 253.208826 
L 447.48 251.845822 
L 447.48 250.482817 
L 447.48 249.119812 
L 447.48 247.756808 
L 447.48 246.393803 
L 447.48 245.030798 
L 447.48 243.667793 
L 447.48 242.304789 
L 447.48 240.941784 
L 447.48 239.578779 
L 447.48 238.215775 
L 447.48 236.85277 
L 447.48 235.489765 
L 447.48 234.126761 
L 447.48 232.763756 
L 447.48 231.400751 
L 447.48 230.037746 
L 447.48 228.674742 
L 447.48 227.311737 
L 447.48 225.948732 
L 447.48 224.585728 
L 447.48 223.222723 
L 447.48 221.859718 
L 447.48 220.496714 
L 447.48 219.133709 
L 447.48 217.770704 
L 447.48 216.4077 
L 447.48 215.044695 
L 447.48 213.68169 
L 447.48 212.318685 
L 447.48 210.955681 
L 447.48 209.592676 
L 447.48 208.229671 
L 447.48 206.866667 
L 447.48 205.503662 
L 447.48 204.140657 
L 447.48 202.777653 
L 447.48 201.414648 
L 447.48 200.051643 
L 447.48 198.688638 
L 447.48 197.325634 
L 447.48 195.962629 
L 447.48 194.599624 
L 447.48 193.23662 
L 447.48 191.873615 
L 447.48 190.51061 
L 447.48 189.147606 
L 447.48 187.784601 
L 447.48 186.421596 
L 447.48 185.058592 
L 447.48 183.695587 
L 447.48 182.332582 
L 447.48 180.969577 
L 447.48 179.606573 
L 447.48 178.243568 
L 447.48 176.880563 
L 447.48 175.517559 
L 447.48 174.154554 
L 447.48 172.791549 
L 447.48 171.428545 
L 447.48 170.06554 
L 447.48 168.702535 
L 447.48 167.339531 
L 447.48 165.976526 
L 447.48 164.613521 
L 447.48 163.250516 
L 447.48 161.887512 
L 447.48 160.524507 
L 447.48 159.161502 
L 447.48 157.798498 
L 447.48 156.435493 
L 447.48 155.072488 
L 447.48 153.709484 
L 447.48 152.346479 
L 447.48 150.983474 
L 447.48 149.620469 
L 447.48 148.257465 
L 447.48 146.89446 
L 447.48 145.531455 
L 447.48 144.168451 
L 447.48 142.805446 
L 447.48 141.442441 
L 447.48 140.079437 
L 447.48 138.716432 
L 447.48 137.353427 
L 447.48 135.990423 
L 447.48 134.627418 
L 447.48 133.264413 
L 447.48 131.901408 
L 447.48 130.538404 
L 447.48 129.175399 
L 447.48 127.812394 
L 447.48 126.44939 
L 447.48 125.086385 
L 447.48 123.72338 
L 447.48 122.360376 
L 447.48 120.997371 
L 447.48 119.634366 
L 447.48 118.271362 
L 447.48 116.908357 
L 447.48 115.545352 
L 447.48 114.182347 
L 447.48 112.819343 
L 447.48 111.456338 
L 447.48 110.093333 
L 447.48 108.730329 
L 447.48 107.367324 
L 447.48 106.004319 
L 447.48 104.641315 
L 447.48 103.27831 
L 447.48 101.915305 
L 447.48 100.5523 
L 447.48 99.189296 
L 447.48 97.826291 
L 447.48 96.463286 
L 447.48 95.100282 
L 447.48 93.737277 
L 447.48 92.374272 
L 447.48 91.011268 
L 447.48 89.648263 
L 447.48 88.285258 
L 447.48 86.922254 
L 447.48 85.559249 
L 447.48 84.196244 
L 447.48 82.833239 
L 447.48 81.470235 
L 447.48 80.10723 
L 447.48 78.744225 
L 447.48 77.381221 
L 447.48 76.018216 
L 447.48 74.655211 
L 447.48 73.292207 
L 447.48 71.929202 
L 447.48 70.566197 
L 447.48 69.203192 
L 447.48 67.840188 
L 447.48 66.477183 
L 447.48 65.114178 
L 447.48 63.751174 
L 447.48 62.388169 
L 447.48 61.025164 
L 447.48 59.66216 
L 447.48 58.299155 
L 447.48 56.93615 
L 447.48 55.573146 
L 447.48 54.210141 
L 447.48 52.847136 
L 447.48 51.484131 
L 447.48 50.121127 
L 447.48 48.758122 
L 447.48 47.395117 
L 447.48 46.032113 
L 447.48 44.669108 
L 447.48 43.306103 
L 447.48 41.943099 
L 447.48 40.580094 
L 447.48 39.217089 
L 447.48 37.854085 
L 447.48 36.49108 
L 447.48 35.128075 
L 447.48 33.76507 
L 447.48 32.402066 
L 447.48 31.039061 
L 447.48 29.676056 
L 447.48 28.313052 
L 447.48 26.950047 
L 447.48 25.587042 
L 447.48 24.224038 
L 447.48 22.861033 
L 447.48 21.498028 
L 447.48 20.135023 
L 447.48 18.772019 
L 447.48 17.409014 
L 447.48 16.046009 
L 447.48 14.683005 
L 447.48 13.32 
L 446.092257 13.32 
L 444.704514 13.32 
L 443.316771 13.32 
L 441.929028 13.32 
L 440.541285 13.32 
L 439.153542 13.32 
L 437.765799 13.32 
L 436.378056 13.32 
L 434.990312 13.32 
L 433.602569 13.32 
L 432.214826 13.32 
L 430.827083 13.32 
L 429.43934 13.32 
L 428.051597 13.32 
L 426.663854 13.32 
L 425.276111 13.32 
L 423.888368 13.32 
L 422.500625 13.32 
L 421.112882 13.32 
L 419.725139 13.32 
L 418.337396 13.32 
L 416.949653 13.32 
L 415.56191 13.32 
L 414.174167 13.32 
L 412.786424 13.32 
L 411.398681 13.32 
L 410.010937 13.32 
L 408.623194 13.32 
L 407.235451 13.32 
L 405.847708 13.32 
L 404.459965 13.32 
L 403.072222 13.32 
L 401.684479 13.32 
L 400.296736 13.32 
L 398.908993 13.32 
L 397.52125 13.32 
L 396.133507 13.32 
L 394.745764 13.32 
L 393.358021 13.32 
L 391.970278 13.32 
L 390.582535 13.32 
L 389.194792 13.32 
L 387.807049 13.32 
L 386.419306 13.32 
L 385.031563 13.32 
L 383.643819 13.32 
L 382.256076 13.32 
L 380.868333 13.32 
L 379.48059 13.32 
L 378.092847 13.32 
L 376.705104 13.32 
L 375.317361 13.32 
L 373.929618 13.32 
L 372.541875 13.32 
L 371.154132 13.32 
L 369.766389 13.32 
L 368.378646 13.32 
L 366.990903 13.32 
L 365.60316 13.32 
L 364.215417 13.32 
L 362.827674 13.32 
L 361.439931 13.32 
L 360.052187 13.32 
L 358.664444 13.32 
L 357.276701 13.32 
L 355.888958 13.32 
L 354.501215 13.32 
L 353.113472 13.32 
L 351.725729 13.32 
L 350.337986 13.32 
L 348.950243 13.32 
L 347.5625 13.32 
L 346.174757 13.32 
L 344.787014 13.32 
L 343.399271 13.32 
L 342.011528 13.32 
L 340.623785 13.32 
L 339.236042 13.32 
L 337.848299 13.32 
L 336.460556 13.32 
L 335.072812 13.32 
L 333.685069 13.32 
L 332.297326 13.32 
L 330.909583 13.32 
L 329.52184 13.32 
L 328.134097 13.32 
L 326.746354 13.32 
L 325.358611 13.32 
L 323.970868 13.32 
L 322.583125 13.32 
L 321.195382 13.32 
L 319.807639 13.32 
L 318.419896 13.32 
L 317.032153 13.32 
L 315.64441 13.32 
L 314.256667 13.32 
L 312.868924 13.32 
L 311.481181 13.32 
L 310.093437 13.32 
L 308.705694 13.32 
L 307.317951 13.32 
L 305.930208 13.32 
L 304.542465 13.32 
L 303.154722 13.32 
L 301.766979 13.32 
L 300.379236 13.32 
L 298.991493 13.32 
L 297.60375 13.32 
L 296.216007 13.32 
L 294.828264 13.32 
L 293.440521 13.32 
L 292.052778 13.32 
L 290.665035 13.32 
L 289.277292 13.32 
L 287.889549 13.32 
L 286.501806 13.32 
L 285.114062 13.32 
L 283.726319 13.32 
L 282.338576 13.32 
L 280.950833 13.32 
L 279.56309 13.32 
L 278.175347 13.32 
L 276.787604 13.32 
L 275.399861 13.32 
L 274.012118 13.32 
L 272.624375 13.32 
L 271.236632 13.32 
L 269.848889 13.32 
L 268.461146 13.32 
L 267.073403 13.32 
L 265.68566 13.32 
L 264.297917 13.32 
L 262.910174 13.32 
L 261.522431 13.32 
L 260.134687 13.32 
L 258.746944 13.32 
L 257.359201 13.32 
L 255.971458 13.32 
L 254.583715 13.32 
L 253.195972 13.32 
L 251.808229 13.32 
L 250.420486 13.32 
L 249.032743 13.32 
L 247.645 13.32 
L 246.257257 13.32 
L 244.869514 13.32 
L 243.481771 13.32 
L 242.094028 13.32 
L 240.706285 13.32 
L 239.318542 13.32 
L 237.930799 13.32 
L 236.543056 13.32 
L 235.155312 13.32 
L 233.767569 13.32 
L 232.379826 13.32 
L 230.992083 13.32 
L 229.60434 13.32 
L 228.216597 13.32 
L 226.828854 13.32 
L 225.441111 13.32 
L 224.053368 13.32 
L 222.665625 13.32 
L 221.277882 13.32 
L 219.890139 13.32 
L 218.502396 13.32 
L 217.114653 13.32 
L 215.72691 13.32 
L 214.339167 13.32 
L 212.951424 13.32 
L 211.563681 13.32 
L 210.175937 13.32 
L 208.788194 13.32 
L 207.400451 13.32 
L 206.012708 13.32 
L 204.624965 13.32 
L 203.237222 13.32 
L 201.849479 13.32 
L 200.461736 13.32 
L 199.073993 13.32 
L 197.68625 13.32 
L 196.298507 13.32 
L 194.910764 13.32 
L 193.523021 13.32 
L 192.135278 13.32 
L 190.747535 13.32 
L 189.359792 13.32 
L 187.972049 13.32 
L 186.584306 13.32 
L 185.196562 13.32 
L 183.808819 13.32 
L 182.421076 13.32 
L 181.033333 13.32 
L 179.64559 13.32 
L 178.257847 13.32 
L 176.870104 13.32 
L 175.482361 13.32 
L 174.094618 13.32 
L 172.706875 13.32 
L 171.319132 13.32 
L 169.931389 13.32 
L 168.543646 13.32 
L 167.155903 13.32 
L 165.76816 13.32 
L 164.380417 13.32 
L 162.992674 13.32 
L 161.604931 13.32 
L 160.217187 13.32 
L 158.829444 13.32 
L 157.441701 13.32 
L 156.053958 13.32 
L 154.666215 13.32 
L 153.278472 13.32 
L 151.890729 13.32 
L 150.502986 13.32 
L 149.115243 13.32 
L 147.7275 13.32 
L 146.339757 13.32 
L 144.952014 13.32 
L 143.564271 13.32 
L 142.176528 13.32 
L 140.788785 13.32 
L 139.401042 13.32 
L 138.013299 13.32 
L 136.625556 13.32 
L 135.237812 13.32 
L 133.850069 13.32 
L 132.462326 13.32 
L 131.074583 13.32 
L 129.68684 13.32 
L 128.299097 13.32 
L 126.911354 13.32 
L 125.523611 13.32 
L 124.135868 13.32 
L 122.748125 13.32 
L 121.360382 13.32 
L 119.972639 13.32 
L 118.584896 13.32 
L 117.197153 13.32 
L 115.80941 13.32 
L 114.421667 13.32 
L 113.033924 13.32 
L 111.646181 13.32 
L 110.258437 13.32 
L 108.870694 13.32 
L 107.482951 13.32 
L 106.095208 13.32 
L 104.707465 13.32 
L 103.319722 13.32 
L 101.931979 13.32 
L 100.544236 13.32 
L 99.156493 13.32 
L 97.76875 13.32 
L 96.381007 13.32 
L 94.993264 13.32 
L 93.605521 13.32 
L 92.217778 13.32 
L 90.830035 13.32 
L 89.442292 13.32 
L 88.054549 13.32 
L 86.666806 13.32 
L 85.279063 13.32 
L 83.891319 13.32 
L 82.503576 13.32 
L 81.115833 13.32 
L 79.72809 13.32 
L 78.340347 13.32 
L 76.952604 13.32 
L 75.564861 13.32 
L 74.177118 13.32 
L 72.789375 13.32 
L 71.401632 13.32 
L 70.013889 13.32 
L 68.626146 13.32 
L 67.238403 13.32 
L 65.85066 13.32 
L 64.462917 13.32 
L 63.075174 13.32 
L 61.687431 13.32 
L 60.299688 13.32 
L 58.911944 13.32 
L 57.524201 13.32 
L 56.136458 13.32 
L 54.748715 13.32 
L 53.360972 13.32 
L 51.973229 13.32 
L 50.585486 13.32 
L 49.197743 13.32 
L 47.81 13.32 
L 47.81 14.683005 
L 47.81 16.046009 
L 47.81 17.409014 
L 47.81 18.772019 
L 47.81 20.135023 
L 47.81 21.498028 
L 47.81 22.861033 
L 47.81 24.224038 
L 47.81 25.587042 
L 47.81 26.950047 
L 47.81 28.313052 
L 47.81 29.676056 
L 47.81 31.039061 
L 47.81 32.402066 
L 47.81 33.76507 
L 47.81 35.128075 
L 47.81 36.49108 
L 47.81 37.854085 
L 47.81 39.217089 
L 47.81 40.580094 
L 47.81 41.943099 
L 47.81 43.306103 
L 47.81 44.669108 
L 47.81 46.032113 
L 47.81 47.395117 
L 47.81 48.758122 
L 47.81 50.121127 
L 47.81 51.484131 
L 47.81 52.847136 
L 47.81 54.210141 
L 47.81 55.573146 
L 47.81 56.93615 
L 47.81 58.299155 
L 47.81 59.66216 
L 47.81 61.025164 
L 47.81 62.388169 
L 47.81 63.751174 
L 47.81 65.114178 
L 47.81 66.477183 
L 47.81 67.840188 
L 47.81 69.203192 
L 47.81 70.566197 
L 47.81 71.929202 
L 47.81 73.292207 
L 47.81 74.655211 
L 47.81 76.018216 
L 47.81 77.381221 
L 47.81 78.744225 
L 47.81 80.10723 
L 47.81 81.470235 
L 47.81 82.833239 
L 47.81 84.196244 
L 47.81 85.559249 
L 47.81 86.922254 
L 47.81 88.285258 
L 47.81 89.648263 
L 47.81 91.011268 
L 47.81 92.374272 
L 47.81 93.737277 
L 47.81 95.100282 
L 47.81 96.463286 
L 47.81 97.826291 
L 47.81 99.189296 
L 47.81 100.5523 
L 47.81 101.915305 
L 47.81 103.27831 
L 47.81 104.641315 
L 47.81 106.004319 
L 47.81 107.367324 
L 47.81 108.730329 
L 47.81 110.093333 
L 47.81 111.456338 
L 47.81 112.819343 
L 47.81 114.182347 
L 47.81 115.545352 
L 47.81 116.908357 
L 47.81 118.271362 
L 47.81 119.634366 
L 47.81 120.997371 
L 47.81 122.360376 
L 47.81 123.72338 
L 47.81 125.086385 
L 47.81 126.44939 
L 47.81 127.812394 
L 47.81 129.175399 
L 47.81 130.538404 
L 47.81 131.901408 
L 47.81 133.264413 
L 47.81 134.627418 
L 47.81 135.990423 
L 47.81 137.353427 
L 47.81 138.716432 
L 47.81 140.079437 
L 47.81 141.442441 
L 47.81 142.805446 
L 47.81 144.168451 
L 47.81 145.531455 
L 47.81 146.89446 
L 47.81 148.257465 
L 47.81 149.620469 
L 47.81 150.983474 
L 47.81 152.346479 
L 47.81 153.709484 
L 47.81 155.072488 
L 47.81 156.435493 
L 47.81 157.798498 
L 47.81 159.161502 
L 47.81 160.524507 
L 47.81 161.887512 
L 47.81 163.250516 
L 47.81 164.613521 
L 47.81 165.976526 
L 47.81 167.339531 
L 47.81 168.702535 
L 47.81 170.06554 
L 47.81 171.428545 
L 47.81 172.791549 
L 47.81 174.154554 
L 47.81 175.517559 
L 47.81 176.880563 
L 47.81 178.243568 
L 47.81 179.606573 
L 47.81 180.969577 
L 47.81 182.332582 
L 47.81 183.695587 
L 47.81 185.058592 
L 47.81 186.421596 
L 47.81 187.784601 
L 47.81 189.147606 
L 47.81 190.51061 
L 47.81 191.873615 
L 47.81 193.23662 
L 47.81 194.599624 
L 47.81 195.962629 
L 47.81 197.325634 
L 47.81 198.688638 
L 47.81 200.051643 
L 47.81 201.414648 
L 47.81 202.777653 
L 47.81 204.140657 
L 47.81 205.503662 
L 47.81 206.866667 
L 47.81 208.229671 
L 47.81 209.592676 
L 47.81 210.955681 
L 47.81 212.318685 
L 47.81 213.68169 
L 47.81 215.044695 
L 47.81 216.4077 
L 47.81 217.770704 
L 47.81 219.133709 
L 47.81 220.496714 
L 47.81 221.859718 
L 47.81 223.222723 
L 47.81 224.585728 
L 47.81 225.948732 
L 47.81 227.311737 
L 47.81 228.674742 
L 47.81 230.037746 
L 47.81 231.400751 
L 47.81 232.763756 
L 47.81 234.126761 
L 47.81 235.489765 
L 47.81 236.85277 
L 47.81 238.215775 
L 47.81 239.578779 
L 47.81 240.941784 
L 47.81 242.304789 
L 47.81 243.667793 
L 47.81 245.030798 
L 47.81 246.393803 
L 47.81 247.756808 
L 47.81 249.119812 
L 47.81 250.482817 
L 47.81 251.845822 
L 47.81 253.208826 
L 47.81 254.571831 
L 47.81 255.934836 
L 47.81 257.29784 
L 47.81 258.660845 
L 47.81 260.02385 
L 47.81 261.386854 
L 47.81 262.749859 
L 47.81 264.112864 
L 47.81 265.475869 
L 47.81 266.838873 
L 47.81 268.201878 
L 47.81 269.564883 
L 47.81 270.927887 
L 47.81 272.290892 
L 47.81 273.653897 
L 47.81 275.016901 
L 47.81 276.379906 
L 47.81 277.742911 
L 47.81 279.105915 
L 47.81 280.46892 
L 47.81 281.831925 
L 47.81 283.19493 
L 47.81 284.557934 
L 47.81 285.920939 
L 47.81 287.283944 
L 47.81 288.646948 
L 47.81 290.009953 
L 47.81 291.372958 
L 47.81 292.735962 
L 47.81 294.098967 
L 47.81 295.461972 
L 47.81 296.824977 
L 47.81 298.187981 
L 47.81 299.550986 
L 47.81 300.913991 
L 47.81 302.276995 
L 47.81 303.64 
z
M 58.474066 283.19493 
L 57.524201 282.588187 
L 56.754213 281.831925 
L 57.524201 281.075663 
L 58.717939 280.46892 
L 58.911944 279.905335 
L 59.10595 280.46892 
L 59.654917 281.831925 
L 59.87495 283.19493 
L 58.911944 283.625002 
z
M 175.075481 127.812394 
L 174.675896 126.44939 
L 174.564135 125.086385 
L 174.094618 124.439433 
L 173.365569 123.72338 
L 172.706875 123.03687 
L 172.018102 122.360376 
L 171.737433 120.997371 
L 172.706875 120.04521 
L 173.247509 119.634366 
L 174.094618 118.802358 
L 174.381591 118.271362 
L 174.792987 116.908357 
L 174.094618 116.296306 
L 172.706875 116.322346 
L 171.319132 116.88949 
L 171.313718 116.908357 
L 170.623723 118.271362 
L 169.931389 118.951354 
L 169.655707 119.634366 
L 169.364827 120.997371 
L 168.543646 121.803914 
L 168.162018 122.360376 
L 168.543646 123.068921 
L 169.209983 123.72338 
L 169.003922 125.086385 
L 168.947699 126.44939 
L 168.543646 126.84624 
L 167.155903 126.857438 
L 165.76816 126.523532 
L 165.692671 126.44939 
L 165.76816 126.038803 
L 166.270763 125.086385 
L 165.76816 124.963315 
L 164.972355 123.72338 
L 164.854368 122.360376 
L 164.380417 122.093898 
L 163.502919 120.997371 
L 163.510197 119.634366 
L 162.992674 118.719282 
L 162.536624 118.271362 
L 162.992674 117.823441 
L 164.380417 117.420487 
L 165.76816 117.262318 
L 166.135375 116.908357 
L 167.155903 115.906021 
L 168.006899 115.545352 
L 168.543646 114.590081 
L 168.697288 114.182347 
L 169.931389 113.250349 
L 171.319132 112.991671 
L 171.83865 112.819343 
L 172.706875 112.372208 
L 174.094618 111.930683 
L 175.482361 112.624987 
L 175.680244 112.819343 
L 175.482361 113.09497 
L 174.094618 114.000911 
L 172.706875 113.489792 
L 172.429458 114.182347 
L 172.706875 114.557917 
L 174.094618 114.312015 
L 175.482361 114.703651 
L 176.870104 114.300482 
L 176.959107 114.182347 
L 178.257847 113.518246 
L 178.934002 114.182347 
L 178.80877 115.545352 
L 179.64559 116.376011 
L 180.377502 115.545352 
L 181.033333 114.901212 
L 182.421076 114.796049 
L 183.183979 115.545352 
L 183.808819 116.262816 
L 185.196562 116.188533 
L 185.95143 116.908357 
L 186.584306 117.821104 
L 187.023399 118.271362 
L 186.584306 118.702628 
L 186.031624 119.634366 
L 186.584306 120.488521 
L 187.972049 120.097825 
L 188.886358 119.634366 
L 189.359792 119.169373 
L 189.833225 119.634366 
L 189.359792 120.622037 
L 189.232051 120.997371 
L 189.359792 121.119011 
L 190.286206 122.360376 
L 189.99732 123.72338 
L 189.359792 124.109519 
L 188.528675 125.086385 
L 187.972049 126.44346 
L 186.584306 125.705027 
L 185.284567 125.086385 
L 185.196562 125.012592 
L 183.808819 124.124272 
L 183.400652 123.72338 
L 183.808819 123.021435 
L 184.75533 122.360376 
L 184.785595 120.997371 
L 183.808819 120.605206 
L 182.421076 120.300766 
L 181.742582 119.634366 
L 181.033333 119.064816 
L 180.709306 119.634366 
L 181.033333 120.611215 
L 181.426498 120.997371 
L 181.033333 121.612137 
L 179.64559 121.877648 
L 179.526345 122.360376 
L 179.273991 123.72338 
L 179.64559 124.095382 
L 181.033333 124.138539 
L 182.421076 124.824913 
L 182.687294 125.086385 
L 183.808819 126.375296 
L 183.993558 126.44939 
L 183.808819 126.523483 
L 182.421076 127.353923 
L 181.614067 127.812394 
L 181.033333 128.382775 
L 179.64559 128.606734 
L 178.257847 128.275273 
L 176.870104 128.160658 
L 175.482361 128.212021 
z
M 157.052028 123.72338 
L 157.441701 123.340653 
L 157.831375 123.72338 
L 157.441701 124.106107 
z
M 196.185794 120.997371 
L 196.298507 120.2581 
L 196.638526 120.997371 
L 196.298507 121.108074 
z
M 196.012471 118.271362 
L 196.298507 118.254399 
L 196.328244 118.271362 
L 196.298507 118.468369 
z
M 77.276973 116.908357 
L 76.952604 116.702895 
L 75.564861 115.586148 
L 75.537987 115.545352 
L 75.564861 115.374989 
L 75.989321 114.182347 
L 76.952604 113.283544 
L 78.340347 113.321393 
L 79.72809 114.04462 
L 80.143423 114.182347 
L 80.965507 115.545352 
L 81.115833 116.066988 
L 81.485935 116.908357 
L 81.115833 117.141795 
L 79.72809 118.011099 
L 78.340347 117.668261 
z
M 187.80275 115.545352 
L 187.972049 115.379071 
L 188.141347 115.545352 
L 187.972049 116.055331 
z
M 160.041245 112.819343 
L 160.217187 112.273859 
L 161.063835 111.456338 
L 161.604931 110.219249 
L 161.941069 111.456338 
L 162.410359 112.819343 
L 161.604931 113.496079 
L 160.217187 112.992149 
z
M 163.882953 112.819343 
L 164.380417 111.71561 
L 164.775762 112.819343 
L 164.380417 113.207641 
z
M 164.726744 111.456338 
L 165.596598 110.093333 
L 165.76816 110.007151 
L 165.90918 110.093333 
L 166.072911 111.456338 
L 165.76816 111.755657 
z
M 174.079657 110.093333 
L 173.435716 108.730329 
L 174.094618 108.539854 
L 174.364182 108.730329 
L 174.129238 110.093333 
L 174.094618 110.108789 
z
M 159.154391 104.641315 
L 158.829444 104.548028 
L 157.441701 103.815681 
L 156.053958 103.338824 
L 154.666215 103.519845 
L 154.420297 103.27831 
L 154.359989 101.915305 
L 153.278472 101.355342 
L 151.890729 101.355118 
L 150.667327 100.5523 
L 150.502986 100.417277 
L 149.115243 100.285888 
L 148.607787 100.5523 
L 148.763232 101.915305 
L 149.115243 102.156057 
L 149.549312 103.27831 
L 149.115243 104.097098 
L 147.872398 103.27831 
L 147.7275 103.065808 
L 146.339757 102.402897 
L 145.655587 101.915305 
L 146.152861 100.5523 
L 146.339757 100.195171 
L 147.097186 99.189296 
L 147.178883 97.826291 
L 146.845277 96.463286 
L 147.7275 95.883838 
L 149.115243 95.496155 
L 149.720034 95.100282 
L 150.502986 94.578581 
L 151.890729 94.721767 
L 152.543141 95.100282 
L 152.357183 96.463286 
L 153.278472 97.143712 
L 154.666215 96.485114 
L 156.053958 97.090777 
L 157.441701 97.177294 
L 158.829444 97.485753 
L 159.379918 97.826291 
L 158.829444 97.885873 
L 158.148269 99.189296 
L 158.829444 99.701363 
L 160.217187 99.803886 
L 161.604931 99.601168 
L 162.461311 99.189296 
L 162.992674 98.831636 
L 164.380417 99.015227 
L 164.843122 99.189296 
L 164.380417 99.363364 
L 163.524047 100.5523 
L 162.992674 101.074202 
L 161.604931 101.69204 
L 161.414227 101.915305 
L 160.690459 103.27831 
L 160.439913 104.641315 
L 160.217187 104.86007 
z
M 144.740479 99.189296 
L 144.952014 98.981532 
L 145.355728 99.189296 
L 144.952014 99.397059 
z
M 159.609996 96.463286 
L 160.217187 96.200115 
L 160.670722 96.463286 
L 160.217187 97.288745 
z
" style="fill:#0e0e13;"/>
    <path clip-path="url(#p8300a26437)" d="M 182.421076 118.967967 
L 182.841999 118.271362 
L 182.421076 117.616312 
L 181.841189 118.271362 
z
" style="fill:#0e0e13;"/>
    <path clip-path="url(#p8300a26437)" d="M 169.931389 116.020932 
L 170.843997 115.545352 
L 169.931389 115.114346 
L 169.080392 115.545352 
z
" style="fill:#0e0e13;"/>
    <path clip-path="url(#p8300a26437)" d="M 157.441701 100.94246 
L 157.963063 100.5523 
L 157.441701 99.883268 
L 156.833982 100.5523 
z
" style="fill:#0e0e13;"/>
   </g>
   <g id="PathCollection_2">
    <path clip-path="url(#p8300a26437)" d="M 58.911944 283.625002 
L 59.87495 283.19493 
L 59.654917 281.831925 
L 59.10595 280.46892 
L 58.911944 279.905335 
L 58.717939 280.46892 
L 57.524201 281.075663 
L 56.754213 281.831925 
L 57.524201 282.588187 
L 58.474066 283.19493 
z
M 57.371968 281.831925 
L 57.524201 281.682405 
L 58.911944 281.622188 
L 59.010147 281.831925 
L 58.911944 282.132214 
L 57.524201 281.981445 
z
" style="fill:#2a2a3a;"/>
    <path clip-path="url(#p8300a26437)" d="M 175.482361 128.212021 
L 176.870104 128.160658 
L 178.257847 128.275273 
L 179.64559 128.606734 
L 181.033333 128.382775 
L 181.614067 127.812394 
L 182.421076 127.353923 
L 183.808819 126.523483 
L 183.993558 126.44939 
L 183.808819 126.375296 
L 182.687294 125.086385 
L 182.421076 124.824913 
L 181.033333 124.138539 
L 179.64559 124.095382 
L 179.273991 123.72338 
L 179.526345 122.360376 
L 179.64559 121.877648 
L 181.033333 121.612137 
L 181.426498 120.997371 
L 181.033333 120.611215 
L 180.709306 119.634366 
L 181.033333 119.064816 
L 181.742582 119.634366 
L 182.421076 120.300766 
L 183.808819 120.605206 
L 184.785595 120.997371 
L 184.75533 122.360376 
L 183.808819 123.021435 
L 183.400652 123.72338 
L 183.808819 124.124272 
L 185.196562 125.012592 
L 185.284567 125.086385 
L 186.584306 125.705027 
L 187.972049 126.44346 
L 188.528675 125.086385 
L 189.359792 124.109519 
L 189.99732 123.72338 
L 190.286206 122.360376 
L 189.359792 121.119011 
L 189.232051 120.997371 
L 189.359792 120.622037 
L 189.833225 119.634366 
L 189.359792 119.169373 
L 188.886358 119.634366 
L 187.972049 120.097825 
L 186.584306 120.488521 
L 186.031624 119.634366 
L 186.584306 118.702628 
L 187.023399 118.271362 
L 186.584306 117.821104 
L 185.95143 116.908357 
L 185.196562 116.188533 
L 183.808819 116.262816 
L 183.183979 115.545352 
L 182.421076 114.796049 
L 181.033333 114.901212 
L 180.377502 115.545352 
L 179.64559 116.376011 
L 178.80877 115.545352 
L 178.934002 114.182347 
L 178.257847 113.518246 
L 176.959107 114.182347 
L 176.870104 114.300482 
L 175.482361 114.703651 
L 174.094618 114.312015 
L 172.706875 114.557917 
L 172.429458 114.182347 
L 172.706875 113.489792 
L 174.094618 114.000911 
L 175.482361 113.09497 
L 175.680244 112.819343 
L 175.482361 112.624987 
L 174.094618 111.930683 
L 172.706875 112.372208 
L 171.83865 112.819343 
L 171.319132 112.991671 
L 169.931389 113.250349 
L 168.697288 114.182347 
L 168.543646 114.590081 
L 168.006899 115.545352 
L 167.155903 115.906021 
L 166.135375 116.908357 
L 165.76816 117.262318 
L 164.380417 117.420487 
L 162.992674 117.823441 
L 162.536624 118.271362 
L 162.992674 118.719282 
L 163.510197 119.634366 
L 163.502919 120.997371 
L 164.380417 122.093898 
L 164.854368 122.360376 
L 164.972355 123.72338 
L 165.76816 124.963315 
L 166.270763 125.086385 
L 165.76816 126.038803 
L 165.692671 126.44939 
L 165.76816 126.523532 
L 167.155903 126.857438 
L 168.543646 126.84624 
L 168.947699 126.44939 
L 169.003922 125.086385 
L 169.209983 123.72338 
L 168.543646 123.068921 
L 168.162018 122.360376 
L 168.543646 121.803914 
L 169.364827 120.997371 
L 169.655707 119.634366 
L 169.931389 118.951354 
L 170.623723 118.271362 
L 171.313718 116.908357 
L 171.319132 116.88949 
L 172.706875 116.322346 
L 174.094618 116.296306 
L 174.792987 116.908357 
L 174.381591 118.271362 
L 174.094618 118.802358 
L 173.247509 119.634366 
L 172.706875 120.04521 
L 171.737433 120.997371 
L 172.018102 122.360376 
L 172.706875 123.03687 
L 173.365569 123.72338 
L 174.094618 124.439433 
L 174.564135 125.086385 
L 174.675896 126.44939 
L 175.075481 127.812394 
z
M 179.021617 127.812394 
L 178.257847 127.199582 
L 177.122442 126.44939 
L 176.870104 126.302897 
L 176.517105 126.44939 
L 175.482361 126.992303 
L 175.257174 126.44939 
L 175.033652 125.086385 
L 174.094618 123.792481 
L 174.024263 123.72338 
L 172.715195 122.360376 
L 172.706875 122.345448 
L 172.155734 120.997371 
L 172.706875 120.456054 
L 173.788144 119.634366 
L 174.094618 119.333355 
L 174.668564 118.271362 
L 175.482361 116.91452 
L 175.493048 116.908357 
L 175.482361 116.665277 
L 174.094618 115.684256 
L 172.706875 115.736335 
L 172.145237 115.545352 
L 172.706875 115.302644 
L 174.094618 115.317222 
L 175.482361 115.498198 
L 175.703069 115.545352 
L 176.870104 115.76208 
L 178.257847 115.68834 
L 179.493375 116.908357 
L 179.64559 117.056699 
L 180.015484 116.908357 
L 181.033333 115.675076 
L 181.477321 115.545352 
L 182.421076 115.409751 
L 182.559138 115.545352 
L 183.040268 116.908357 
L 182.421076 116.961262 
L 181.261302 118.271362 
L 181.033333 118.495266 
L 180.385279 119.634366 
L 179.64559 120.667897 
L 179.097117 120.997371 
L 178.727715 122.360376 
L 178.902392 123.72338 
L 179.64559 124.467383 
L 181.033333 124.553697 
L 181.903737 125.086385 
L 182.421076 125.685307 
L 183.125967 126.44939 
L 182.421076 126.895452 
L 181.033333 127.575616 
L 180.458783 127.812394 
L 179.64559 128.038069 
z
M 165.564292 123.72338 
L 165.76816 122.851834 
L 165.915387 122.360376 
L 165.76816 122.274619 
L 164.380417 121.456292 
L 164.013164 120.997371 
L 164.02772 119.634366 
L 163.597187 118.271362 
L 164.380417 117.932617 
L 165.76816 117.616279 
L 166.50259 116.908357 
L 167.155903 116.26669 
L 168.543646 115.964755 
L 169.931389 116.496513 
L 170.572913 116.908357 
L 169.931389 118.264437 
L 169.928425 118.271362 
L 169.380025 119.634366 
L 168.798266 120.997371 
L 168.543646 121.247452 
L 167.780389 122.360376 
L 168.420972 123.72338 
L 167.155903 124.414629 
L 165.76816 124.041024 
z
M 185.226176 123.72338 
L 185.859768 122.360376 
L 186.584306 121.422242 
L 187.001353 120.997371 
L 187.972049 120.561284 
L 188.58288 120.997371 
L 189.359792 121.737175 
L 189.824878 122.360376 
L 189.359792 123.212344 
L 187.972049 123.346176 
L 187.478322 123.72338 
L 186.584306 124.842108 
z
M 182.460693 119.634366 
L 183.262923 118.271362 
L 183.808819 117.006153 
L 184.442866 116.908357 
L 185.196562 116.831713 
L 185.276938 116.908357 
L 186.039574 118.271362 
L 185.478943 119.634366 
L 185.196562 120.273152 
L 183.808819 120.213041 
z
M 181.841189 118.271362 
L 182.421076 117.616312 
L 182.841999 118.271362 
L 182.421076 118.967967 
z
M 169.080392 115.545352 
L 169.931389 115.114346 
L 170.843997 115.545352 
L 169.931389 116.020932 
z
M 169.268003 114.182347 
L 169.931389 113.681356 
L 171.319132 113.581576 
L 171.879362 114.182347 
L 171.319132 115.109123 
L 169.931389 114.683339 
z
" style="fill:#2a2a3a;"/>
    <path clip-path="url(#p8300a26437)" d="M 157.441701 124.106107 
L 157.831375 123.72338 
L 157.441701 123.340653 
L 157.052028 123.72338 
z
" style="fill:#2a2a3a;"/>
    <path clip-path="url(#p8300a26437)" d="M 196.298507 121.108074 
L 196.638526 120.997371 
L 196.298507 120.2581 
L 196.185794 120.997371 
z
" style="fill:#2a2a3a;"/>
    <path clip-path="url(#p8300a26437)" d="M 196.298507 118.468369 
L 196.328244 118.271362 
L 196.298507 118.254399 
L 196.012471 118.271362 
z
" style="fill:#2a2a3a;"/>
    <path clip-path="url(#p8300a26437)" d="M 78.340347 117.668261 
L 79.72809 118.011099 
L 81.115833 117.141795 
L 81.485935 116.908357 
L 81.115833 116.066988 
L 80.965507 115.545352 
L 80.143423 114.182347 
L 79.72809 114.04462 
L 78.340347 113.321393 
L 76.952604 113.283544 
L 75.989321 114.182347 
L 75.564861 115.374989 
L 75.537987 115.545352 
L 75.564861 115.586148 
L 76.952604 116.702895 
L 77.276973 116.908357 
z
" style="fill:#2a2a3a;"/>
    <path clip-path="url(#p8300a26437)" d="M 187.972049 116.055331 
L 188.141347 115.545352 
L 187.972049 115.379071 
L 187.80275 115.545352 
z
" style="fill:#2a2a3a;"/>
    <path clip-path="url(#p8300a26437)" d="M 160.217187 112.992149 
L 161.604931 113.496079 
L 162.410359 112.819343 
L 161.941069 111.456338 
L 161.604931 110.219249 
L 161.063835 111.456338 
L 160.217188 112.273859 
L 160.041245 112.819343 
z
" style="fill:#2a2a3a;"/>
    <path clip-path="url(#p8300a26437)" d="M 164.380417 113.207641 
L 164.775762 112.819343 
L 164.380417 111.71561 
L 163.882953 112.819343 
z
" style="fill:#2a2a3a;"/>
    <path clip-path="url(#p8300a26437)" d="M 165.76816 111.755657 
L 166.072911 111.456338 
L 165.90918 110.093333 
L 165.76816 110.007151 
L 165.596598 110.093333 
L 164.726744 111.456338 
z
" style="fill:#2a2a3a;"/>
    <path clip-path="url(#p8300a26437)" d="M 174.094618 110.108789 
L 174.129238 110.093333 
L 174.364182 108.730329 
L 174.094618 108.539854 
L 173.435716 108.730329 
L 174.079657 110.093333 
z
" style="fill:#2a2a3a;"/>
    <path clip-path="url(#p8300a26437)" d="M 160.217187 104.86007 
L 160.439913 104.641315 
L 160.690459 103.27831 
L 161.414227 101.915305 
L 161.604931 101.69204 
L 162.992674 101.074202 
L 163.524047 100.5523 
L 164.380417 99.363364 
L 164.843122 99.189296 
L 164.380417 99.015227 
L 162.992674 98.831636 
L 162.461311 99.189296 
L 161.604931 99.601168 
L 160.217187 99.803886 
L 158.829444 99.701363 
L 158.148269 99.189296 
L 158.829444 97.885873 
L 159.379918 97.826291 
L 158.829444 97.485753 
L 157.441701 97.177294 
L 156.053958 97.090777 
L 154.666215 96.485114 
L 153.278472 97.143712 
L 152.357183 96.463286 
L 152.543141 95.100282 
L 151.890729 94.721767 
L 150.502986 94.578581 
L 149.720034 95.100282 
L 149.115243 95.496155 
L 147.7275 95.883838 
L 146.845277 96.463286 
L 147.178883 97.826291 
L 147.097186 99.189296 
L 146.339757 100.195171 
L 146.152861 100.5523 
L 145.655587 101.915305 
L 146.339757 102.402897 
L 147.7275 103.065808 
L 147.872398 103.27831 
L 149.115243 104.097098 
L 149.549312 103.27831 
L 149.115243 102.156057 
L 148.763232 101.915305 
L 148.607787 100.5523 
L 149.115243 100.285888 
L 150.502986 100.417277 
L 150.667327 100.5523 
L 151.890729 101.355118 
L 153.278472 101.355342 
L 154.359989 101.915305 
L 154.420297 103.27831 
L 154.666215 103.519845 
L 156.053958 103.338824 
L 157.441701 103.815681 
L 158.829444 104.548028 
L 159.154391 104.641315 
z
M 155.224133 101.915305 
L 154.666215 101.49322 
L 153.278472 100.795379 
L 151.890729 100.794932 
L 151.520987 100.5523 
L 150.502986 99.715908 
L 149.115243 99.493007 
L 148.593202 99.189296 
L 148.156238 97.826291 
L 148.566793 96.463286 
L 149.115243 96.322606 
L 150.502986 95.470283 
L 151.437978 96.463286 
L 151.890729 97.406732 
L 153.278472 97.824138 
L 154.666215 97.40274 
L 156.053958 97.718267 
L 156.96164 97.826291 
L 157.441701 98.793362 
L 157.467094 99.189296 
L 157.441701 99.214235 
L 156.226262 100.5523 
L 157.441701 101.332619 
L 158.484424 100.5523 
L 158.829444 100.213431 
L 160.217187 100.418475 
L 161.604931 100.319509 
L 162.244131 100.5523 
L 161.604931 100.831254 
L 160.678982 101.915305 
L 160.217187 102.686168 
L 158.829444 103.111619 
L 157.441701 103.020044 
L 156.053958 102.634829 
z
M 156.833982 100.5523 
L 157.441701 99.883268 
L 157.963063 100.5523 
L 157.441701 100.94246 
z
" style="fill:#2a2a3a;"/>
    <path clip-path="url(#p8300a26437)" d="M 144.952014 99.397059 
L 145.355728 99.189296 
L 144.952014 98.981532 
L 144.740479 99.189296 
z
" style="fill:#2a2a3a;"/>
    <path clip-path="url(#p8300a26437)" d="M 160.217187 97.288745 
L 160.670722 96.463286 
L 160.217187 96.200115 
L 159.609996 96.463286 
z
" style="fill:#2a2a3a;"/>
   </g>
   <g id="PathCollection_3">
    <path clip-path="url(#p8300a26437)" d="M 57.524201 281.981445 
L 58.911944 282.132214 
L 59.010147 281.831925 
L 58.911944 281.622188 
L 57.524201 281.682405 
L 57.371968 281.831925 
z
" style="fill:#464661;"/>
    <path clip-path="url(#p8300a26437)" d="M 179.64559 128.038069 
L 180.458783 127.812394 
L 181.033333 127.575616 
L 182.421076 126.895452 
L 183.125967 126.44939 
L 182.421076 125.685307 
L 181.903737 125.086385 
L 181.033333 124.553697 
L 179.64559 124.467383 
L 178.902392 123.72338 
L 178.727715 122.360376 
L 179.097117 120.997371 
L 179.64559 120.667897 
L 180.385279 119.634366 
L 181.033333 118.495266 
L 181.261302 118.271362 
L 182.421076 116.961262 
L 183.040268 116.908357 
L 182.559138 115.545352 
L 182.421076 115.409751 
L 181.477321 115.545352 
L 181.033333 115.675076 
L 180.015484 116.908357 
L 179.64559 117.056699 
L 179.493375 116.908357 
L 178.257847 115.68834 
L 176.870104 115.76208 
L 175.703069 115.545352 
L 175.482361 115.498198 
L 174.094618 115.317222 
L 172.706875 115.302644 
L 172.145237 115.545352 
L 172.706875 115.736335 
L 174.094618 115.684256 
L 175.482361 116.665277 
L 175.493048 116.908357 
L 175.482361 116.91452 
L 174.668564 118.271362 
L 174.094618 119.333355 
L 173.788144 119.634366 
L 172.706875 120.456054 
L 172.155734 120.997371 
L 172.706875 122.345448 
L 172.715195 122.360376 
L 174.024263 123.72338 
L 174.094618 123.792481 
L 175.033652 125.086385 
L 175.257174 126.44939 
L 175.482361 126.992303 
L 176.517105 126.44939 
L 176.870104 126.302897 
L 177.122442 126.44939 
L 178.257847 127.199582 
L 179.021617 127.812394 
z
M 179.014035 126.44939 
L 178.257847 125.285936 
L 176.870104 125.194447 
L 175.916052 125.086385 
L 176.870104 124.893077 
L 177.488212 123.72338 
L 176.870104 123.343502 
L 176.121355 123.72338 
L 175.482361 124.976109 
L 174.982129 123.72338 
L 174.094618 123.196826 
L 173.285472 122.360376 
L 172.706875 121.322295 
L 172.574035 120.997371 
L 172.706875 120.866899 
L 174.094618 119.798566 
L 174.306624 119.634366 
L 174.955537 118.271362 
L 175.482361 117.392989 
L 176.322738 116.908357 
L 176.870104 116.452723 
L 178.257847 116.106864 
L 179.06953 116.908357 
L 179.64559 117.46976 
L 180.702742 118.271362 
L 180.061252 119.634366 
L 179.64559 120.21515 
L 178.343431 120.997371 
L 178.257847 121.29206 
L 177.963123 122.360376 
L 178.257847 122.849909 
L 178.530793 123.72338 
L 179.64559 124.839384 
L 181.033333 124.968855 
L 181.225375 125.086385 
L 182.31695 126.44939 
L 181.033333 126.731151 
L 179.64559 126.939387 
z
" style="fill:#464661;"/>
    <path clip-path="url(#p8300a26437)" d="M 165.76816 124.041024 
L 167.155903 124.414629 
L 168.420972 123.72338 
L 167.780389 122.360376 
L 168.543646 121.247452 
L 168.798266 120.997371 
L 169.380025 119.634366 
L 169.928425 118.271362 
L 169.931389 118.264437 
L 170.572913 116.908357 
L 169.931389 116.496513 
L 168.543646 115.964755 
L 167.155903 116.26669 
L 166.50259 116.908357 
L 165.76816 117.616279 
L 164.380417 117.932617 
L 163.597187 118.271362 
L 164.02772 119.634366 
L 164.013164 120.997371 
L 164.380417 121.456292 
L 165.76816 122.274619 
L 165.915387 122.360376 
L 165.76816 122.851834 
L 165.564292 123.72338 
z
M 166.673475 122.360376 
L 165.76816 121.833051 
L 164.559407 120.997371 
L 164.542124 119.634366 
L 164.775472 118.271362 
L 165.76816 117.970239 
L 166.869805 116.908357 
L 167.155903 116.627359 
L 168.296057 116.908357 
L 168.543646 117.095078 
L 169.258093 118.271362 
L 169.104343 119.634366 
L 168.543646 120.706998 
L 168.268161 120.997371 
L 167.398761 122.360376 
L 167.155903 123.381811 
z
" style="fill:#464661;"/>
    <path clip-path="url(#p8300a26437)" d="M 186.584306 124.842108 
L 187.478322 123.72338 
L 187.972049 123.346176 
L 189.359792 123.212344 
L 189.824878 122.360376 
L 189.359792 121.737175 
L 188.58288 120.997371 
L 187.972049 120.561284 
L 187.001353 120.997371 
L 186.584306 121.422242 
L 185.859768 122.360376 
L 185.226176 123.72338 
z
M 187.25018 122.360376 
L 187.972049 121.456163 
L 189.359792 122.35534 
L 189.36355 122.360376 
L 189.359792 122.36726 
L 187.972049 122.463156 
z
" style="fill:#464661;"/>
    <path clip-path="url(#p8300a26437)" d="M 183.808819 120.213041 
L 185.196562 120.273152 
L 185.478943 119.634366 
L 186.039574 118.271362 
L 185.276938 116.908357 
L 185.196562 116.831713 
L 184.442866 116.908357 
L 183.808819 117.006153 
L 183.262923 118.271362 
L 182.460693 119.634366 
z
M 183.374312 119.634366 
L 183.683846 118.271362 
L 183.808819 117.981714 
L 184.693673 118.271362 
L 184.492992 119.634366 
L 183.808819 119.820875 
z
" style="fill:#464661;"/>
    <path clip-path="url(#p8300a26437)" d="M 169.931389 114.683339 
L 171.319132 115.109123 
L 171.879362 114.182347 
L 171.319132 113.581576 
L 169.931389 113.681356 
L 169.268003 114.182347 
z
M 169.838719 114.182347 
L 169.931389 114.112362 
L 171.319132 114.171481 
L 171.329265 114.182347 
L 171.319132 114.19911 
L 169.931389 114.252332 
z
" style="fill:#464661;"/>
    <path clip-path="url(#p8300a26437)" d="M 156.053958 102.634829 
L 157.441701 103.020044 
L 158.829444 103.111619 
L 160.217187 102.686168 
L 160.678982 101.915305 
L 161.604931 100.831254 
L 162.244131 100.5523 
L 161.604931 100.319509 
L 160.217187 100.418475 
L 158.829444 100.213431 
L 158.484424 100.5523 
L 157.441701 101.332619 
L 156.226262 100.5523 
L 157.441701 99.214235 
L 157.467094 99.189296 
L 157.441701 98.793362 
L 156.96164 97.826291 
L 156.053958 97.718267 
L 154.666215 97.40274 
L 153.278472 97.824138 
L 151.890729 97.406732 
L 151.437978 96.463286 
L 150.502986 95.470283 
L 149.115243 96.322606 
L 148.566793 96.463286 
L 148.156238 97.826291 
L 148.593202 99.189296 
L 149.115243 99.493007 
L 150.502986 99.715908 
L 151.520987 100.5523 
L 151.890729 100.794932 
L 153.278472 100.795379 
L 154.666215 101.49322 
L 155.224133 101.915305 
z
M 156.002417 101.915305 
L 156.053958 101.799982 
L 157.441701 101.722778 
L 158.829444 101.124799 
L 159.601981 101.915305 
L 158.829444 102.296153 
L 157.441701 102.280325 
L 156.053958 101.959995 
z
M 153.953194 100.5523 
L 153.278472 99.635674 
L 151.890729 99.222329 
L 151.816505 99.189296 
L 151.890729 99.165142 
L 153.278472 98.894094 
L 154.666215 98.40746 
L 156.009633 99.189296 
L 155.297562 100.5523 
L 154.666215 100.904418 
z
M 149.4611 97.826291 
L 150.471054 96.463286 
L 150.502986 96.444252 
L 150.520908 96.463286 
L 151.148951 97.826291 
L 150.502986 98.82365 
z
" style="fill:#464661;"/>
   </g>
   <g id="PathCollection_4">
    <path clip-path="url(#p8300a26437)" d="M 179.64559 126.939387 
L 181.033333 126.731151 
L 182.31695 126.44939 
L 181.225375 125.086385 
L 181.033333 124.968855 
L 179.64559 124.839384 
L 178.530793 123.72338 
L 178.257847 122.849909 
L 177.963123 122.360376 
L 178.257847 121.29206 
L 178.343431 120.997371 
L 179.64559 120.21515 
L 180.061252 119.634366 
L 180.702742 118.271362 
L 179.64559 117.46976 
L 179.06953 116.908357 
L 178.257847 116.106864 
L 176.870104 116.452723 
L 176.322738 116.908357 
L 175.482361 117.392989 
L 174.955537 118.271362 
L 174.306624 119.634366 
L 174.094618 119.798566 
L 172.706875 120.866899 
L 172.574035 120.997371 
L 172.706875 121.322295 
L 173.285472 122.360376 
L 174.094618 123.196826 
L 174.982129 123.72338 
L 175.482361 124.976109 
L 176.121355 123.72338 
L 176.870104 123.343502 
L 177.488212 123.72338 
L 176.870104 124.893077 
L 175.916052 125.086385 
L 176.870104 125.194447 
L 178.257847 125.285936 
L 179.014035 126.44939 
z
M 173.85575 122.360376 
L 173.039799 120.997371 
L 174.094618 120.177674 
L 174.796109 119.634366 
L 175.24251 118.271362 
L 175.482361 117.871458 
L 176.870104 117.049739 
L 177.246275 116.908357 
L 178.257847 116.525388 
L 178.645685 116.908357 
L 179.64559 117.882821 
L 180.157997 118.271362 
L 179.737225 119.634366 
L 179.64559 119.762403 
L 178.257847 120.5046 
L 177.431279 120.997371 
L 177.247176 122.360376 
L 176.870104 122.699537 
L 175.482361 123.207646 
L 174.094618 122.607304 
z
" style="fill:#626882;"/>
    <path clip-path="url(#p8300a26437)" d="M 167.155903 123.381811 
L 167.398761 122.360376 
L 168.268161 120.997371 
L 168.543646 120.706998 
L 169.104343 119.634366 
L 169.258093 118.271362 
L 168.543646 117.095078 
L 168.296057 116.908357 
L 167.155903 116.627359 
L 166.869805 116.908357 
L 165.76816 117.970239 
L 164.775472 118.271362 
L 164.542124 119.634366 
L 164.559407 120.997371 
L 165.76816 121.833051 
L 166.673475 122.360376 
z
M 165.198105 120.997371 
L 165.049855 119.634366 
L 165.76816 118.401455 
L 165.932392 118.271362 
L 167.155903 117.134227 
L 168.543646 118.198729 
L 168.587761 118.271362 
L 168.828661 119.634366 
L 168.543646 120.17961 
L 167.767812 120.997371 
L 167.155903 122.047993 
L 165.76816 121.391483 
z
" style="fill:#626882;"/>
    <path clip-path="url(#p8300a26437)" d="M 187.972049 122.463156 
L 189.359792 122.36726 
L 189.36355 122.360376 
L 189.359792 122.35534 
L 187.972049 121.456163 
L 187.25018 122.360376 
z
" style="fill:#626882;"/>
    <path clip-path="url(#p8300a26437)" d="M 183.808819 119.820875 
L 184.492992 119.634366 
L 184.693673 118.271362 
L 183.808819 117.981714 
L 183.683846 118.271362 
L 183.374312 119.634366 
z
" style="fill:#626882;"/>
    <path clip-path="url(#p8300a26437)" d="M 169.931389 114.252332 
L 171.319132 114.19911 
L 171.329265 114.182347 
L 171.319132 114.171481 
L 169.931389 114.112362 
L 169.838719 114.182347 
z
" style="fill:#626882;"/>
    <path clip-path="url(#p8300a26437)" d="M 156.053958 101.959995 
L 157.441701 102.280325 
L 158.829444 102.296153 
L 159.601981 101.915305 
L 158.829444 101.124799 
L 157.441701 101.722778 
L 156.053958 101.799982 
L 156.002417 101.915305 
z
" style="fill:#626882;"/>
    <path clip-path="url(#p8300a26437)" d="M 154.666215 100.904418 
L 155.297562 100.5523 
L 156.009633 99.189296 
L 154.666215 98.40746 
L 153.278472 98.894094 
L 151.890729 99.165142 
L 151.816505 99.189296 
L 151.890729 99.222329 
L 153.278472 99.635674 
L 153.953194 100.5523 
z
" style="fill:#626882;"/>
    <path clip-path="url(#p8300a26437)" d="M 150.502986 98.82365 
L 151.148951 97.826291 
L 150.520908 96.463286 
L 150.502986 96.444252 
L 150.471054 96.463286 
L 149.4611 97.826291 
z
" style="fill:#626882;"/>
   </g>
   <g id="PathCollection_5">
    <path clip-path="url(#p8300a26437)" d="M 174.094618 122.607304 
L 175.482361 123.207646 
L 176.870104 122.699537 
L 177.247176 122.360376 
L 177.431279 120.997371 
L 178.257847 120.5046 
L 179.64559 119.762403 
L 179.737225 119.634366 
L 180.157997 118.271362 
L 179.64559 117.882821 
L 178.645685 116.908357 
L 178.257847 116.525388 
L 177.246275 116.908357 
L 176.870104 117.049739 
L 175.482361 117.871458 
L 175.24251 118.271362 
L 174.796109 119.634366 
L 174.094618 120.177674 
L 173.039799 120.997371 
L 173.85575 122.360376 
z
M 173.52765 120.997371 
L 174.094618 120.556781 
L 175.285593 119.634366 
L 175.482361 118.666648 
L 175.590645 118.271362 
L 176.870104 117.465232 
L 178.257847 116.959199 
L 179.609008 118.271362 
L 178.869636 119.634366 
L 178.257847 119.948705 
L 176.870104 120.520892 
L 176.205074 120.997371 
L 175.482361 121.953374 
L 174.094618 121.906015 
z
" style="fill:#7e8f9e;"/>
    <path clip-path="url(#p8300a26437)" d="M 165.76816 121.391483 
L 167.155903 122.047993 
L 167.767812 120.997371 
L 168.543646 120.17961 
L 168.828661 119.634366 
L 168.587761 118.271362 
L 168.543646 118.198729 
L 167.155903 117.134227 
L 165.932392 118.271362 
L 165.76816 118.401455 
L 165.049855 119.634366 
L 165.198105 120.997371 
z
M 166.219513 120.997371 
L 165.76816 120.716858 
L 165.557586 119.634366 
L 165.76816 119.272933 
L 167.032565 118.271362 
L 167.155903 118.156731 
L 167.304596 118.271362 
L 168.543646 119.586696 
L 168.552979 119.634366 
L 168.543646 119.652222 
L 167.267464 120.997371 
L 167.155903 121.188917 
z
" style="fill:#7e8f9e;"/>
   </g>
   <g id="PathCollection_6">
    <path clip-path="url(#p8300a26437)" d="M 167.155903 121.188917 
L 167.267464 120.997371 
L 168.543646 119.652222 
L 168.552979 119.634366 
L 168.543646 119.586696 
L 167.304596 118.271362 
L 167.155903 118.156731 
L 167.032565 118.271362 
L 165.76816 119.272933 
L 165.557586 119.634366 
L 165.76816 120.716858 
L 166.219513 120.997371 
z
M 166.797204 119.634366 
L 167.155903 119.379706 
L 167.397846 119.634366 
L 167.155903 119.917804 
z
" style="fill:#9ab5ba;"/>
    <path clip-path="url(#p8300a26437)" d="M 174.094618 121.906015 
L 175.482361 121.953374 
L 176.205074 120.997371 
L 176.870104 120.520892 
L 178.257847 119.948705 
L 178.869636 119.634366 
L 179.609008 118.271362 
L 178.257847 116.959199 
L 176.870104 117.465232 
L 175.590645 118.271362 
L 175.482361 118.666648 
L 175.285593 119.634366 
L 174.094618 120.556781 
L 173.52765 120.997371 
z
M 174.015501 120.997371 
L 174.094618 120.935889 
L 174.403141 120.997371 
L 174.094618 121.124167 
z
M 176.250101 118.271362 
L 176.870104 117.880726 
L 178.257847 117.557665 
L 178.992755 118.271362 
L 178.257847 119.270355 
L 176.870104 119.339833 
z
" style="fill:#9ab5ba;"/>
   </g>
   <g id="PathCollection_7">
    <path clip-path="url(#p8300a26437)" d="M 174.094618 121.124167 
L 174.403141 120.997371 
L 174.094618 120.935889 
L 174.015501 120.997371 
z
" style="fill:#bfd6d6;"/>
    <path clip-path="url(#p8300a26437)" d="M 167.155903 119.917804 
L 167.397846 119.634366 
L 167.155903 119.379706 
L 166.797204 119.634366 
z
" style="fill:#bfd6d6;"/>
    <path clip-path="url(#p8300a26437)" d="M 176.870104 119.339833 
L 178.257847 119.270355 
L 178.992755 118.271362 
L 178.257847 117.557665 
L 176.870104 117.880726 
L 176.250101 118.271362 
z
M 177.199082 118.271362 
L 178.257847 118.156132 
L 178.376501 118.271362 
L 178.257847 118.432654 
z
" style="fill:#bfd6d6;"/>
   </g>
   <g id="PathCollection_8">
    <path clip-path="url(#p8300a26437)" d="M 178.257847 118.432654 
L 178.376501 118.271362 
L 178.257847 118.156132 
L 177.199082 118.271362 
z
" style="fill:#eaf2f2;"/>
   </g>
   <g id="vortex0">
    <path clip-path="url(#p8300a26437)" d="M 176.735655 124.584363 
C 180.194026 124.584363 183.511216 123.93976 185.956653 122.792519 
C 188.402091 121.645279 189.776116 120.089069 189.776116 118.466626 
C 189.776116 116.844183 188.402091 115.287973 185.956653 114.140733 
C 183.511216 112.993492 180.194026 112.348889 176.735655 112.348889 
C 173.277284 112.348889 169.960094 112.993492 167.514656 114.140733 
C 165.069219 115.287973 163.695194 116.844183 163.695194 118.466626 
C 163.695194 120.089069 165.069219 121.645279 167.514656 122.792519 
C 169.960094 123.93976 173.277284 124.584363 176.735655 124.584363 
z
" style="fill:none;stroke:#ffff00;stroke-linejoin:miter;"/>
   </g>
   <g id="matplotlib.axis_1">
    <g id="xtick_1">
     <g id="line2d_1">
      <defs>
       <path d="M 0 0 
L 0 3.5 
" id="m5e7d3c566d" style="stroke:#000000;stroke-width:0.8;"/>
      </defs>
      <g>
       <use style="stroke:#000000;stroke-width:0.8;" x="47.81" xlink:href="#m5e7d3c566d" y="303.64"/>
      </g>
     </g>
     <g id="text_1">
      <!-- 0.00 -->
      <defs>
       <path d="M 31.78125 66.40625 
Q 24.171875 66.40625 20.328125 58.90625 
Q 16.5 51.421875 16.5 36.375 
Q 16.5 21.390625 20.328125 13.890625 
Q 24.171875 6.390625 31.78125 6.390625 
Q 39.453125 6.390625 43.28125 13.890625 
Q 47.125 21.390625 47.125 36.375 
Q 47.125 51.421875 43.28125 58.90625 
Q 39.453125 66.40625 31.78125 66.40625 
z
M 31.78125 74.21875 
Q 44.046875 74.21875 50.515625 64.515625 
Q 56.984375 54.828125 56.984375 36.375 
Q 56.984375 17.96875 50.515625 8.265625 
Q 44.046875 -1.421875 31.78125 -1.421875 
Q 19.53125 -1.421875 13.0625 8.265625 
Q 6.59375 17.96875 6.59375 36.375 
Q 6.59375 54.828125 13.0625 64.515625 
Q 19.53125 74.21875 31.78125 74.21875 
z
" id="DejaVuSans-48"/>
       <path d="M 10.6875 12.40625 
L 21 12.40625 
L 21 0 
L 10.6875 0 
z
" id="DejaVuSans-46"/>
      </defs>
      <g transform="translate(36.677188 318.238437)scale(0.1 -0.1)">
       <use xlink:href="#DejaVuSans-48"/>
       <use x="63.623047" xlink:href="#DejaVuSans-46"/>
       <use x="95.410156" xlink:href="#DejaVuSans-48"/>
       <use x="159.033203" xlink:href="#DejaVuSans-48"/>
      </g>
     </g>
    </g>
    <g id="xtick_2">
     <g id="line2d_2">
      <g>
       <use style="stroke:#000000;stroke-width:0.8;" x="99.837791" xlink:href="#m5e7d3c566d" y="303.64"/>
      </g>
     </g>
     <g id="text_2">
      <!-- 0.25 -->
      <defs>
       <path d="M 19.1875 8.296875 
L 53.609375 8.296875 
L 53.609375 0 
L 7.328125 0 
L 7.328125 8.296875 
Q 12.9375 14.109375 22.625 23.890625 
Q 32.328125 33.6875 34.8125 36.53125 
Q 39.546875 41.84375 41.421875 45.53125 
Q 43.3125 49.21875 43.3125 52.78125 
Q 43.3125 58.59375 39.234375 62.25 
Q 35.15625 65.921875 28.609375 65.921875 
Q 23.96875 65.921875 18.8125 64.3125 
Q 13.671875 62.703125 7.8125 59.421875 
L 7.8125 69.390625 
Q 13.765625 71.78125 18.9375 73 
Q 24.125 74.21875 28.421875 74.21875 
Q 39.75 74.21875 46.484375 68.546875 
Q 53.21875 62.890625 53.21875 53.421875 
Q 53.21875 48.921875 51.53125 44.890625 
Q 49.859375 40.875 45.40625 35.40625 
Q 44.1875 33.984375 37.640625 27.21875 
Q 31.109375 20.453125 19.1875 8.296875 
z
" id="DejaVuSans-50"/>
       <path d="M 10.796875 72.90625 
L 49.515625 72.90625 
L 49.515625 64.59375 
L 19.828125 64.59375 
L 19.828125 46.734375 
Q 21.96875 47.46875 24.109375 47.828125 
Q 26.265625 48.1875 28.421875 48.1875 
Q 40.625 48.1875 47.75 41.5 
Q 54.890625 34.8125 54.890625 23.390625 
Q 54.890625 11.625 47.5625 5.09375 
Q 40.234375 -1.421875 26.90625 -1.421875 
Q 22.3125 -1.421875 17.546875 -0.640625 
Q 12.796875 0.140625 7.71875 1.703125 
L 7.71875 11.625 
Q 12.109375 9.234375 16.796875 8.0625 
Q 21.484375 6.890625 26.703125 6.890625 
Q 35.15625 6.890625 40.078125 11.328125 
Q 45.015625 15.765625 45.015625 23.390625 
Q 45.015625 31 40.078125 35.4375 
Q 35.15625 39.890625 26.703125 39.890625 
Q 22.75 39.890625 18.8125 39.015625 
Q 14.890625 38.140625 10.796875 36.28125 
z
" id="DejaVuSans-53"/>
      </defs>
      <g transform="translate(88.704979 318.238437)scale(0.1 -0.1)">
       <use xlink:href="#DejaVuSans-48"/>
       <use x="63.623047" xlink:href="#DejaVuSans-46"/>
       <use x="95.410156" xlink:href="#DejaVuSans-50"/>
       <use x="159.033203" xlink:href="#DejaVuSans-53"/>
      </g>
     </g>
    </g>
    <g id="xtick_3">
     <g id="line2d_3">
      <g>
       <use style="stroke:#000000;stroke-width:0.8;" x="151.865582" xlink:href="#m5e7d3c566d" y="303.64"/>
      </g>
     </g>
     <g id="text_3">
      <!-- 0.50 -->
      <g transform="translate(140.73277 318.238437)scale(0.1 -0.1)">
       <use xlink:href="#DejaVuSans-48"/>
       <use x="63.623047" xlink:href="#DejaVuSans-46"/>
       <use x="95.410156" xlink:href="#DejaVuSans-53"/>
       <use x="159.033203" xlink:href="#DejaVuSans-48"/>
      </g>
     </g>
    </g>
    <g id="xtick_4">
     <g id="line2d_4">
      <g>
       <use style="stroke:#000000;stroke-width:0.8;" x="203.893374" xlink:href="#m5e7d3c566d" y="303.64"/>
      </g>
     </g>
     <g id="text_4">
      <!-- 0.75 -->
      <defs>
       <path d="M 8.203125 72.90625 
L 55.078125 72.90625 
L 55.078125 68.703125 
L 28.609375 0 
L 18.3125 0 
L 43.21875 64.59375 
L 8.203125 64.59375 
z
" id="DejaVuSans-55"/>
      </defs>
      <g transform="translate(192.760561 318.238437)scale(0.1 -0.1)">
       <use xlink:href="#DejaVuSans-48"/>
       <use x="63.623047" xlink:href="#DejaVuSans-46"/>
       <use x="95.410156" xlink:href="#DejaVuSans-55"/>
       <use x="159.033203" xlink:href="#DejaVuSans-53"/>
      </g>
     </g>
    </g>
    <g id="xtick_5">
     <g id="line2d_5">
      <g>
       <use style="stroke:#000000;stroke-width:0.8;" x="255.921165" xlink:href="#m5e7d3c566d" y="303.64"/>
      </g>
     </g>
     <g id="text_5">
      <!-- 1.00 -->
      <defs>
       <path d="M 12.40625 8.296875 
L 28.515625 8.296875 
L 28.515625 63.921875 
L 10.984375 60.40625 
L 10.984375 69.390625 
L 28.421875 72.90625 
L 38.28125 72.90625 
L 38.28125 8.296875 
L 54.390625 8.296875 
L 54.390625 0 
L 12.40625 0 
z
" id="DejaVuSans-49"/>
      </defs>
      <g transform="translate(244.788352 318.238437)scale(0.1 -0.1)">
       <use xlink:href="#DejaVuSans-49"/>
       <use x="63.623047" xlink:href="#DejaVuSans-46"/>
       <use x="95.410156" xlink:href="#DejaVuSans-48"/>
       <use x="159.033203" xlink:href="#DejaVuSans-48"/>
      </g>
     </g>
    </g>
    <g id="xtick_6">
     <g id="line2d_6">
      <g>
       <use style="stroke:#000000;stroke-width:0.8;" x="307.948956" xlink:href="#m5e7d3c566d" y="303.64"/>
      </g>
     </g>
     <g id="text_6">
      <!-- 1.25 -->
      <g transform="translate(296.816144 318.238437)scale(0.1 -0.1)">
       <use xlink:href="#DejaVuSans-49"/>
       <use x="63.623047" xlink:href="#DejaVuSans-46"/>
       <use x="95.410156" xlink:href="#DejaVuSans-50"/>
       <use x="159.033203" xlink:href="#DejaVuSans-53"/>
      </g>
     </g>
    </g>
    <g id="xtick_7">
     <g id="line2d_7">
      <g>
       <use style="stroke:#000000;stroke-width:0.8;" x="359.976747" xlink:href="#m5e7d3c566d" y="303.64"/>
      </g>
     </g>
     <g id="text_7">
      <!-- 1.50 -->
      <g transform="translate(348.843935 318.238437)scale(0.1 -0.1)">
       <use xlink:href="#DejaVuSans-49"/>
       <use x="63.623047" xlink:href="#DejaVuSans-46"/>
       <use x="95.410156" xlink:href="#DejaVuSans-53"/>
       <use x="159.033203" xlink:href="#DejaVuSans-48"/>
      </g>
     </g>
    </g>
    <g id="xtick_8">
     <g id="line2d_8">
      <g>
       <use style="stroke:#000000;stroke-width:0.8;" x="412.004538" xlink:href="#m5e7d3c566d" y="303.64"/>
      </g>
     </g>
     <g id="text_8">
      <!-- 1.75 -->
      <g transform="translate(400.871726 318.238437)scale(0.1 -0.1)">
       <use xlink:href="#DejaVuSans-49"/>
       <use x="63.623047" xlink:href="#DejaVuSans-46"/>
       <use x="95.410156" xlink:href="#DejaVuSans-55"/>
       <use x="159.033203" xlink:href="#DejaVuSans-53"/>
      </g>
     </g>
    </g>
    <g id="text_9">
     <!-- x -->
     <defs>
      <path d="M 54.890625 54.6875 
L 35.109375 28.078125 
L 55.90625 0 
L 45.3125 0 
L 29.390625 21.484375 
L 13.484375 0 
L 2.875 0 
L 24.125 28.609375 
L 4.6875 54.6875 
L 15.28125 54.6875 
L 29.78125 35.203125 
L 44.28125 54.6875 
z
" id="DejaVuSans-120"/>
     </defs>
     <g transform="translate(244.685625 331.916562)scale(0.1 -0.1)">
      <use xlink:href="#DejaVuSans-120"/>
     </g>
    </g>
   </g>
   <g id="matplotlib.axis_2">
    <g id="ytick_1">
     <g id="line2d_9">
      <defs>
       <path d="M 0 0 
L -3.5 0 
" id="m40b10271cc" style="stroke:#000000;stroke-width:0.8;"/>
      </defs>
      <g>
       <use style="stroke:#000000;stroke-width:0.8;" x="47.81" xlink:href="#m40b10271cc" y="303.64"/>
      </g>
     </g>
     <g id="text_10">
      <!-- 0.0 -->
      <g transform="translate(24.906875 307.439219)scale(0.1 -0.1)">
       <use xlink:href="#DejaVuSans-48"/>
       <use x="63.623047" xlink:href="#DejaVuSans-46"/>
       <use x="95.410156" xlink:href="#DejaVuSans-48"/>
      </g>
     </g>
    </g>
    <g id="ytick_2">
     <g id="line2d_10">
      <g>
       <use style="stroke:#000000;stroke-width:0.8;" x="47.81" xlink:href="#m40b10271cc" y="254.823882"/>
      </g>
     </g>
     <g id="text_11">
      <!-- 0.5 -->
      <g transform="translate(24.906875 258.6231)scale(0.1 -0.1)">
       <use xlink:href="#DejaVuSans-48"/>
       <use x="63.623047" xlink:href="#DejaVuSans-46"/>
       <use x="95.410156" xlink:href="#DejaVuSans-53"/>
      </g>
     </g>
    </g>
    <g id="ytick_3">
     <g id="line2d_11">
      <g>
       <use style="stroke:#000000;stroke-width:0.8;" x="47.81" xlink:href="#m40b10271cc" y="206.007763"/>
      </g>
     </g>
     <g id="text_12">
      <!-- 1.0 -->
      <g transform="translate(24.906875 209.806982)scale(0.1 -0.1)">
       <use xlink:href="#DejaVuSans-49"/>
       <use x="63.623047" xlink:href="#DejaVuSans-46"/>
       <use x="95.410156" xlink:href="#DejaVuSans-48"/>
      </g>
     </g>
    </g>
    <g id="ytick_4">
     <g id="line2d_12">
      <g>
       <use style="stroke:#000000;stroke-width:0.8;" x="47.81" xlink:href="#m40b10271cc" y="157.191645"/>
      </g>
     </g>
     <g id="text_13">
      <!-- 1.5 -->
      <g transform="translate(24.906875 160.990864)scale(0.1 -0.1)">
       <use xlink:href="#DejaVuSans-49"/>
       <use x="63.623047" xlink:href="#DejaVuSans-46"/>
       <use x="95.410156" xlink:href="#DejaVuSans-53"/>
      </g>
     </g>
    </g>
    <g id="ytick_5">
     <g id="line2d_13">
      <g>
       <use style="stroke:#000000;stroke-width:0.8;" x="47.81" xlink:href="#m40b10271cc" y="108.375527"/>
      </g>
     </g>
     <g id="text_14">
      <!-- 2.0 -->
      <g transform="translate(24.906875 112.174745)scale(0.1 -0.1)">
       <use xlink:href="#DejaVuSans-50"/>
       <use x="63.623047" xlink:href="#DejaVuSans-46"/>
       <use x="95.410156" xlink:href="#DejaVuSans-48"/>
      </g>
     </g>
    </g>
    <g id="ytick_6">
     <g id="line2d_14">
      <g>
       <use style="stroke:#000000;stroke-width:0.8;" x="47.81" xlink:href="#m40b10271cc" y="59.559408"/>
      </g>
     </g>
     <g id="text_15">
      <!-- 2.5 -->
      <g transform="translate(24.906875 63.358627)scale(0.1 -0.1)">
       <use xlink:href="#DejaVuSans-50"/>
       <use x="63.623047" xlink:href="#DejaVuSans-46"/>
       <use x="95.410156" xlink:href="#DejaVuSans-53"/>
      </g>
     </g>
    </g>
    <g id="text_16">
     <!-- y -->
     <defs>
      <path d="M 32.171875 -5.078125 
Q 28.375 -14.84375 24.75 -17.8125 
Q 21.140625 -20.796875 15.09375 -20.796875 
L 7.90625 -20.796875 
L 7.90625 -13.28125 
L 13.1875 -13.28125 
Q 16.890625 -13.28125 18.9375 -11.515625 
Q 21 -9.765625 23.484375 -3.21875 
L 25.09375 0.875 
L 2.984375 54.6875 
L 12.5 54.6875 
L 29.59375 11.921875 
L 46.6875 54.6875 
L 56.203125 54.6875 
z
" id="DejaVuSans-121"/>
     </defs>
     <g transform="translate(18.827188 161.439375)rotate(-90)scale(0.1 -0.1)">
      <use xlink:href="#DejaVuSans-121"/>
     </g>
    </g>
   </g>
   <g id="patch_3">
    <path d="M 47.81 303.64 
L 47.81 13.32 
" style="fill:none;stroke:#000000;stroke-linecap:square;stroke-linejoin:miter;stroke-width:0.8;"/>
   </g>
   <g id="patch_4">
    <path d="M 447.48 303.64 
L 447.48 13.32 
" style="fill:none;stroke:#000000;stroke-linecap:square;stroke-linejoin:miter;stroke-width:0.8;"/>
   </g>
   <g id="patch_5">
    <path d="M 47.81 303.64 
L 447.48 303.64 
" style="fill:none;stroke:#000000;stroke-linecap:square;stroke-linejoin:miter;stroke-width:0.8;"/>
   </g>
   <g id="patch_6">
    <path d="M 47.81 13.32 
L 447.48 13.32 
" style="fill:none;stroke:#000000;stroke-linecap:square;stroke-linejoin:miter;stroke-width:0.8;"/>
   </g>
  </g>
 </g>
 <defs>
  <clipPath id="p8300a26437">
   <rect height="290.32" width="399.67" x="47.81" y="13.32"/>
  </clipPath>
 </defs>
</svg>
